<svg width="857" height="298" viewBox="0 0 857 298" fill="none" xmlns="http://www.w3.org/2000/svg">
<path d="M116 172L199 217.5L289.5 103L375 89L461 110.5L550 175L637.5 157.5L720 110.5L809 27" stroke="#1BD972"/>
<path d="M100.977 290.432V292.227H90.9281C90.9143 291.777 90.9869 291.345 91.1459 290.93C91.4017 290.246 91.8096 289.572 92.3696 288.908C92.9365 288.244 93.7524 287.477 94.8171 286.606C96.4694 285.251 97.586 284.179 98.1667 283.391C98.7475 282.596 99.0379 281.846 99.0379 281.14C99.0379 280.401 98.7717 279.778 98.2393 279.274C97.7139 278.762 97.026 278.506 96.1756 278.506C95.2768 278.506 94.5578 278.776 94.0185 279.315C93.4793 279.855 93.2062 280.601 93.1993 281.555L91.2807 281.358C91.4121 279.927 91.9064 278.838 92.7637 278.092C93.621 277.338 94.7721 276.961 96.2171 276.961C97.6759 276.961 98.8305 277.366 99.6808 278.174C100.531 278.983 100.956 279.986 100.956 281.182C100.956 281.79 100.832 282.388 100.583 282.976C100.334 283.564 99.9194 284.182 99.3386 284.832C98.7648 285.482 97.8072 286.374 96.466 287.508C95.346 288.448 94.6269 289.088 94.3089 289.427C93.9909 289.758 93.7282 290.094 93.5207 290.432H100.977ZM102.989 284.729C102.989 282.931 103.172 281.486 103.539 280.394C103.912 279.295 104.462 278.448 105.188 277.853C105.92 277.258 106.84 276.961 107.946 276.961C108.762 276.961 109.478 277.127 110.093 277.459C110.708 277.784 111.216 278.257 111.617 278.88C112.018 279.495 112.333 280.249 112.561 281.14C112.789 282.025 112.903 283.221 112.903 284.729C112.903 286.512 112.72 287.954 112.354 289.053C111.987 290.146 111.438 290.992 110.705 291.594C109.979 292.189 109.059 292.486 107.946 292.486C106.48 292.486 105.329 291.96 104.493 290.91C103.49 289.644 102.989 287.584 102.989 284.729ZM104.908 284.729C104.908 287.225 105.198 288.887 105.779 289.717C106.366 290.54 107.089 290.951 107.946 290.951C108.803 290.951 109.522 290.536 110.103 289.707C110.691 288.877 110.985 287.218 110.985 284.729C110.985 282.226 110.691 280.563 110.103 279.74C109.522 278.918 108.797 278.506 107.925 278.506C107.068 278.506 106.384 278.869 105.872 279.595C105.229 280.522 104.908 282.233 104.908 284.729ZM121.843 292.227H119.976V280.332C119.527 280.76 118.935 281.189 118.203 281.618C117.477 282.046 116.823 282.368 116.243 282.582V280.777C117.287 280.287 118.199 279.692 118.98 278.994C119.762 278.295 120.315 277.618 120.64 276.961H121.843V292.227ZM132.618 292.227V288.587H126.022V286.875L132.96 277.023H134.484V286.875H136.538V288.587H134.484V292.227H132.618ZM132.618 286.875V280.02L127.858 286.875H132.618Z" fill="#222222"/>
<path d="M187.893 290.432V292.227H177.844C177.831 291.777 177.903 291.345 178.062 290.93C178.318 290.246 178.726 289.572 179.286 288.908C179.853 288.244 180.669 287.477 181.733 286.606C183.386 285.251 184.502 284.179 185.083 283.391C185.664 282.596 185.954 281.846 185.954 281.14C185.954 280.401 185.688 279.778 185.156 279.274C184.63 278.762 183.942 278.506 183.092 278.506C182.193 278.506 181.474 278.776 180.935 279.315C180.396 279.855 180.122 280.601 180.116 281.555L178.197 281.358C178.328 279.927 178.823 278.838 179.68 278.092C180.537 277.338 181.688 276.961 183.133 276.961C184.592 276.961 185.747 277.366 186.597 278.174C187.448 278.983 187.873 279.986 187.873 281.182C187.873 281.79 187.748 282.388 187.499 282.976C187.25 283.564 186.836 284.182 186.255 284.832C185.681 285.482 184.724 286.374 183.382 287.508C182.262 288.448 181.543 289.088 181.225 289.427C180.907 289.758 180.644 290.094 180.437 290.432H187.893ZM189.905 284.729C189.905 282.931 190.089 281.486 190.455 280.394C190.828 279.295 191.378 278.448 192.104 277.853C192.837 277.258 193.756 276.961 194.862 276.961C195.678 276.961 196.394 277.127 197.009 277.459C197.624 277.784 198.133 278.257 198.534 278.88C198.935 279.495 199.249 280.249 199.477 281.14C199.705 282.025 199.82 283.221 199.82 284.729C199.82 286.512 199.636 287.954 199.27 289.053C198.904 290.146 198.354 290.992 197.621 291.594C196.895 292.189 195.976 292.486 194.862 292.486C193.397 292.486 192.246 291.96 191.409 290.91C190.407 289.644 189.905 287.584 189.905 284.729ZM191.824 284.729C191.824 287.225 192.114 288.887 192.695 289.717C193.283 290.54 194.005 290.951 194.862 290.951C195.72 290.951 196.439 290.536 197.02 289.707C197.607 288.877 197.901 287.218 197.901 284.729C197.901 282.226 197.607 280.563 197.02 279.74C196.439 278.918 195.713 278.506 194.842 278.506C193.984 278.506 193.3 278.869 192.788 279.595C192.145 280.522 191.824 282.233 191.824 284.729ZM208.759 292.227H206.892V280.332C206.443 280.76 205.852 281.189 205.119 281.618C204.393 282.046 203.74 282.368 203.159 282.582V280.777C204.203 280.287 205.115 279.692 205.897 278.994C206.678 278.295 207.231 277.618 207.556 276.961H208.759V292.227ZM213.55 288.244L215.51 288.078C215.655 289.032 215.991 289.751 216.516 290.235C217.048 290.712 217.688 290.951 218.435 290.951C219.333 290.951 220.094 290.612 220.716 289.935C221.338 289.257 221.65 288.358 221.65 287.238C221.65 286.174 221.349 285.334 220.747 284.718C220.153 284.103 219.371 283.795 218.404 283.795C217.802 283.795 217.259 283.934 216.775 284.21C216.291 284.48 215.911 284.832 215.635 285.268L213.882 285.04L215.355 277.231H222.915V279.015H216.848L216.029 283.1C216.941 282.464 217.899 282.146 218.901 282.146C220.229 282.146 221.349 282.606 222.261 283.526C223.174 284.445 223.63 285.627 223.63 287.072C223.63 288.448 223.229 289.637 222.427 290.64C221.453 291.871 220.122 292.486 218.435 292.486C217.052 292.486 215.922 292.099 215.044 291.324C214.172 290.55 213.675 289.523 213.55 288.244Z" fill="#222222"/>
<path d="M274.81 290.432V292.227H264.761C264.747 291.777 264.819 291.345 264.978 290.93C265.234 290.246 265.642 289.572 266.202 288.908C266.769 288.244 267.585 287.477 268.649 286.606C270.302 285.251 271.418 284.179 271.999 283.391C272.58 282.596 272.87 281.846 272.87 281.14C272.87 280.401 272.604 279.778 272.072 279.274C271.546 278.762 270.858 278.506 270.008 278.506C269.109 278.506 268.39 278.776 267.851 279.315C267.312 279.855 267.039 280.601 267.032 281.555L265.113 281.358C265.245 279.927 265.739 278.838 266.596 278.092C267.453 277.338 268.605 276.961 270.05 276.961C271.508 276.961 272.663 277.366 273.513 278.174C274.364 278.983 274.789 279.986 274.789 281.182C274.789 281.79 274.664 282.388 274.416 282.976C274.167 283.564 273.752 284.182 273.171 284.832C272.597 285.482 271.64 286.374 270.298 287.508C269.178 288.448 268.459 289.088 268.141 289.427C267.823 289.758 267.561 290.094 267.353 290.432H274.81ZM276.821 284.729C276.821 282.931 277.005 281.486 277.371 280.394C277.744 279.295 278.294 278.448 279.02 277.853C279.753 277.258 280.672 276.961 281.779 276.961C282.594 276.961 283.31 277.127 283.925 277.459C284.541 277.784 285.049 278.257 285.45 278.88C285.851 279.495 286.165 280.249 286.393 281.14C286.622 282.025 286.736 283.221 286.736 284.729C286.736 286.512 286.552 287.954 286.186 289.053C285.82 290.146 285.27 290.992 284.537 291.594C283.811 292.189 282.892 292.486 281.779 292.486C280.313 292.486 279.162 291.96 278.325 290.91C277.323 289.644 276.821 287.584 276.821 284.729ZM278.74 284.729C278.74 287.225 279.03 288.887 279.611 289.717C280.199 290.54 280.921 290.951 281.779 290.951C282.636 290.951 283.355 290.536 283.936 289.707C284.523 288.877 284.817 287.218 284.817 284.729C284.817 282.226 284.523 280.563 283.936 279.74C283.355 278.918 282.629 278.506 281.758 278.506C280.901 278.506 280.216 278.869 279.704 279.595C279.062 280.522 278.74 282.233 278.74 284.729ZM295.675 292.227H293.808V280.332C293.359 280.76 292.768 281.189 292.035 281.618C291.309 282.046 290.656 282.368 290.075 282.582V280.777C291.119 280.287 292.032 279.692 292.813 278.994C293.594 278.295 294.147 277.618 294.472 276.961H295.675V292.227ZM310.152 280.746L308.296 280.892C308.13 280.159 307.895 279.626 307.591 279.295C307.086 278.762 306.464 278.496 305.724 278.496C305.13 278.496 304.608 278.662 304.158 278.994C303.571 279.422 303.107 280.048 302.769 280.871C302.43 281.694 302.253 282.865 302.24 284.386C302.689 283.702 303.239 283.194 303.889 282.862C304.538 282.53 305.219 282.364 305.932 282.364C307.176 282.364 308.234 282.824 309.105 283.743C309.983 284.656 310.422 285.838 310.422 287.29C310.422 288.244 310.215 289.133 309.8 289.955C309.392 290.771 308.828 291.397 308.109 291.832C307.39 292.268 306.575 292.486 305.662 292.486C304.106 292.486 302.838 291.915 301.856 290.775C300.874 289.627 300.383 287.74 300.383 285.112C300.383 282.174 300.926 280.038 302.012 278.703C302.959 277.542 304.234 276.961 305.838 276.961C307.034 276.961 308.013 277.296 308.773 277.967C309.541 278.638 310 279.564 310.152 280.746ZM302.53 287.301C302.53 287.944 302.665 288.559 302.934 289.147C303.211 289.734 303.595 290.184 304.086 290.495C304.576 290.799 305.092 290.951 305.631 290.951C306.419 290.951 307.097 290.633 307.663 289.997C308.23 289.361 308.514 288.497 308.514 287.404C308.514 286.353 308.234 285.527 307.674 284.926C307.114 284.317 306.409 284.013 305.558 284.013C304.715 284.013 303.999 284.317 303.412 284.926C302.824 285.527 302.53 286.319 302.53 287.301Z" fill="#222222"/>
<path d="M361.725 290.432V292.227H351.676C351.662 291.777 351.735 291.345 351.894 290.93C352.15 290.246 352.558 289.572 353.118 288.908C353.684 288.244 354.5 287.477 355.565 286.606C357.217 285.251 358.334 284.179 358.915 283.391C359.495 282.596 359.786 281.846 359.786 281.14C359.786 280.401 359.52 279.778 358.987 279.274C358.462 278.762 357.774 278.506 356.924 278.506C356.025 278.506 355.306 278.776 354.766 279.315C354.227 279.855 353.954 280.601 353.947 281.555L352.029 281.358C352.16 279.927 352.654 278.838 353.512 278.092C354.369 277.338 355.52 276.961 356.965 276.961C358.424 276.961 359.578 277.366 360.429 278.174C361.279 278.983 361.704 279.986 361.704 281.182C361.704 281.79 361.58 282.388 361.331 282.976C361.082 283.564 360.667 284.182 360.087 284.832C359.513 285.482 358.555 286.374 357.214 287.508C356.094 288.448 355.375 289.088 355.057 289.427C354.739 289.758 354.476 290.094 354.269 290.432H361.725ZM363.737 284.729C363.737 282.931 363.92 281.486 364.287 280.394C364.66 279.295 365.21 278.448 365.935 277.853C366.668 277.258 367.588 276.961 368.694 276.961C369.51 276.961 370.225 277.127 370.841 277.459C371.456 277.784 371.964 278.257 372.365 278.88C372.766 279.495 373.081 280.249 373.309 281.14C373.537 282.025 373.651 283.221 373.651 284.729C373.651 286.512 373.468 287.954 373.102 289.053C372.735 290.146 372.185 290.992 371.453 291.594C370.727 292.189 369.807 292.486 368.694 292.486C367.228 292.486 366.077 291.96 365.241 290.91C364.238 289.644 363.737 287.584 363.737 284.729ZM365.655 284.729C365.655 287.225 365.946 288.887 366.527 289.717C367.114 290.54 367.837 290.951 368.694 290.951C369.551 290.951 370.27 290.536 370.851 289.707C371.439 288.877 371.733 287.218 371.733 284.729C371.733 282.226 371.439 280.563 370.851 279.74C370.27 278.918 369.544 278.506 368.673 278.506C367.816 278.506 367.132 278.869 366.62 279.595C365.977 280.522 365.655 282.233 365.655 284.729ZM382.591 292.227H380.724V280.332C380.274 280.76 379.683 281.189 378.951 281.618C378.225 282.046 377.571 282.368 376.99 282.582V280.777C378.034 280.287 378.947 279.692 379.728 278.994C380.51 278.295 381.063 277.618 381.388 276.961H382.591V292.227ZM387.506 279.015V277.22H397.348V278.672C396.38 279.702 395.419 281.071 394.465 282.779C393.518 284.487 392.785 286.243 392.266 288.047C391.893 289.319 391.654 290.712 391.551 292.227H389.632C389.653 291.03 389.888 289.586 390.337 287.892C390.787 286.198 391.43 284.566 392.266 282.997C393.11 281.42 394.005 280.093 394.952 279.015H387.506Z" fill="#222222"/>
<path d="M448.642 290.432V292.227H438.593C438.579 291.777 438.651 291.345 438.81 290.93C439.066 290.246 439.474 289.572 440.034 288.908C440.601 288.244 441.417 287.477 442.481 286.606C444.134 285.251 445.25 284.179 445.831 283.391C446.412 282.596 446.702 281.846 446.702 281.14C446.702 280.401 446.436 279.778 445.904 279.274C445.378 278.762 444.69 278.506 443.84 278.506C442.941 278.506 442.222 278.776 441.683 279.315C441.144 279.855 440.871 280.601 440.864 281.555L438.945 281.358C439.076 279.927 439.571 278.838 440.428 278.092C441.285 277.338 442.437 276.961 443.881 276.961C445.34 276.961 446.495 277.366 447.345 278.174C448.196 278.983 448.621 279.986 448.621 281.182C448.621 281.79 448.496 282.388 448.247 282.976C447.999 283.564 447.584 284.182 447.003 284.832C446.429 285.482 445.472 286.374 444.13 287.508C443.01 288.448 442.291 289.088 441.973 289.427C441.655 289.758 441.393 290.094 441.185 290.432H448.642ZM450.653 284.729C450.653 282.931 450.837 281.486 451.203 280.394C451.576 279.295 452.126 278.448 452.852 277.853C453.585 277.258 454.504 276.961 455.611 276.961C456.426 276.961 457.142 277.127 457.757 277.459C458.373 277.784 458.881 278.257 459.282 278.88C459.683 279.495 459.997 280.249 460.225 281.14C460.454 282.025 460.568 283.221 460.568 284.729C460.568 286.512 460.384 287.954 460.018 289.053C459.652 290.146 459.102 290.992 458.369 291.594C457.643 292.189 456.724 292.486 455.611 292.486C454.145 292.486 452.994 291.96 452.157 290.91C451.155 289.644 450.653 287.584 450.653 284.729ZM452.572 284.729C452.572 287.225 452.862 288.887 453.443 289.717C454.031 290.54 454.753 290.951 455.611 290.951C456.468 290.951 457.187 290.536 457.768 289.707C458.355 288.877 458.649 287.218 458.649 284.729C458.649 282.226 458.355 280.563 457.768 279.74C457.187 278.918 456.461 278.506 455.59 278.506C454.733 278.506 454.048 278.869 453.536 279.595C452.893 280.522 452.572 282.233 452.572 284.729ZM469.507 292.227H467.64V280.332C467.191 280.76 466.6 281.189 465.867 281.618C465.141 282.046 464.488 282.368 463.907 282.582V280.777C464.951 280.287 465.864 279.692 466.645 278.994C467.426 278.295 467.979 277.618 468.304 276.961H469.507V292.227ZM477.171 283.982C476.397 283.699 475.823 283.294 475.449 282.769C475.076 282.243 474.889 281.614 474.889 280.881C474.889 279.775 475.287 278.845 476.082 278.092C476.877 277.338 477.935 276.961 479.255 276.961C480.583 276.961 481.651 277.348 482.46 278.123C483.269 278.89 483.673 279.827 483.673 280.933C483.673 281.638 483.487 282.254 483.113 282.779C482.747 283.298 482.187 283.699 481.433 283.982C482.367 284.286 483.075 284.777 483.559 285.455C484.05 286.132 484.295 286.941 484.295 287.881C484.295 289.181 483.836 290.273 482.916 291.158C481.997 292.043 480.787 292.486 479.286 292.486C477.786 292.486 476.576 292.043 475.657 291.158C474.737 290.267 474.278 289.157 474.278 287.829C474.278 286.841 474.526 286.015 475.024 285.351C475.529 284.68 476.244 284.224 477.171 283.982ZM476.798 280.819C476.798 281.538 477.029 282.126 477.492 282.582C477.956 283.038 478.557 283.266 479.297 283.266C480.016 283.266 480.604 283.042 481.06 282.592C481.523 282.136 481.755 281.579 481.755 280.923C481.755 280.238 481.516 279.664 481.039 279.201C480.569 278.731 479.981 278.496 479.276 278.496C478.564 278.496 477.973 278.724 477.503 279.18C477.033 279.637 476.798 280.183 476.798 280.819ZM476.196 287.84C476.196 288.372 476.321 288.887 476.569 289.385C476.825 289.883 477.202 290.27 477.7 290.547C478.198 290.816 478.733 290.951 479.307 290.951C480.199 290.951 480.935 290.664 481.516 290.09C482.097 289.516 482.387 288.787 482.387 287.902C482.387 287.003 482.087 286.26 481.485 285.672C480.89 285.085 480.144 284.791 479.245 284.791C478.367 284.791 477.638 285.081 477.057 285.662C476.483 286.243 476.196 286.969 476.196 287.84Z" fill="#222222"/>
<path d="M535.556 290.432V292.227H525.507C525.494 291.777 525.566 291.345 525.725 290.93C525.981 290.246 526.389 289.572 526.949 288.908C527.516 288.244 528.332 287.477 529.396 286.606C531.049 285.251 532.165 284.179 532.746 283.391C533.327 282.596 533.617 281.846 533.617 281.14C533.617 280.401 533.351 279.778 532.819 279.274C532.293 278.762 531.605 278.506 530.755 278.506C529.856 278.506 529.137 278.776 528.598 279.315C528.059 279.855 527.785 280.601 527.779 281.555L525.86 281.358C525.991 279.927 526.486 278.838 527.343 278.092C528.2 277.338 529.351 276.961 530.796 276.961C532.255 276.961 533.41 277.366 534.26 278.174C535.111 278.983 535.536 279.986 535.536 281.182C535.536 281.79 535.411 282.388 535.162 282.976C534.914 283.564 534.499 284.182 533.918 284.832C533.344 285.482 532.387 286.374 531.045 287.508C529.925 288.448 529.206 289.088 528.888 289.427C528.57 289.758 528.307 290.094 528.1 290.432H535.556ZM537.568 284.729C537.568 282.931 537.752 281.486 538.118 280.394C538.491 279.295 539.041 278.448 539.767 277.853C540.5 277.258 541.419 276.961 542.525 276.961C543.341 276.961 544.057 277.127 544.672 277.459C545.287 277.784 545.796 278.257 546.197 278.88C546.598 279.495 546.912 280.249 547.14 281.14C547.369 282.025 547.483 283.221 547.483 284.729C547.483 286.512 547.299 287.954 546.933 289.053C546.567 290.146 546.017 290.992 545.284 291.594C544.558 292.189 543.639 292.486 542.525 292.486C541.06 292.486 539.909 291.96 539.072 290.91C538.07 289.644 537.568 287.584 537.568 284.729ZM539.487 284.729C539.487 287.225 539.777 288.887 540.358 289.717C540.946 290.54 541.668 290.951 542.525 290.951C543.383 290.951 544.102 290.536 544.683 289.707C545.27 288.877 545.564 287.218 545.564 284.729C545.564 282.226 545.27 280.563 544.683 279.74C544.102 278.918 543.376 278.506 542.505 278.506C541.647 278.506 540.963 278.869 540.451 279.595C539.808 280.522 539.487 282.233 539.487 284.729ZM556.422 292.227H554.555V280.332C554.106 280.76 553.515 281.189 552.782 281.618C552.056 282.046 551.403 282.368 550.822 282.582V280.777C551.866 280.287 552.778 279.692 553.56 278.994C554.341 278.295 554.894 277.618 555.219 276.961H556.422V292.227ZM561.493 288.711L563.287 288.545C563.439 289.388 563.73 290 564.158 290.381C564.587 290.761 565.137 290.951 565.807 290.951C566.381 290.951 566.882 290.82 567.311 290.557C567.747 290.294 568.103 289.945 568.379 289.509C568.656 289.067 568.887 288.472 569.074 287.726C569.261 286.979 569.354 286.219 569.354 285.444C569.354 285.361 569.351 285.237 569.344 285.071C568.97 285.665 568.459 286.149 567.809 286.523C567.166 286.889 566.468 287.072 565.714 287.072C564.456 287.072 563.391 286.616 562.52 285.703C561.649 284.791 561.213 283.588 561.213 282.095C561.213 280.553 561.666 279.312 562.572 278.372C563.484 277.431 564.625 276.961 565.994 276.961C566.983 276.961 567.885 277.227 568.701 277.76C569.523 278.292 570.146 279.053 570.567 280.041C570.996 281.023 571.21 282.447 571.21 284.314C571.21 286.257 571 287.805 570.578 288.96C570.156 290.108 569.527 290.982 568.69 291.584C567.861 292.185 566.886 292.486 565.766 292.486C564.577 292.486 563.605 292.157 562.852 291.501C562.098 290.837 561.645 289.907 561.493 288.711ZM569.136 282.001C569.136 280.93 568.849 280.079 568.276 279.45C567.709 278.821 567.024 278.506 566.222 278.506C565.393 278.506 564.67 278.845 564.055 279.523C563.439 280.2 563.132 281.078 563.132 282.157C563.132 283.125 563.422 283.913 564.003 284.521C564.591 285.123 565.313 285.423 566.17 285.423C567.035 285.423 567.743 285.123 568.296 284.521C568.856 283.913 569.136 283.073 569.136 282.001Z" fill="#222222"/>
<path d="M622.473 290.432V292.227H612.424C612.41 291.777 612.483 291.345 612.642 290.93C612.897 290.246 613.305 289.572 613.865 288.908C614.432 288.244 615.248 287.477 616.313 286.606C617.965 285.251 619.082 284.179 619.662 283.391C620.243 282.596 620.534 281.846 620.534 281.14C620.534 280.401 620.267 279.778 619.735 279.274C619.21 278.762 618.522 278.506 617.671 278.506C616.773 278.506 616.054 278.776 615.514 279.315C614.975 279.855 614.702 280.601 614.695 281.555L612.776 281.358C612.908 279.927 613.402 278.838 614.259 278.092C615.117 277.338 616.268 276.961 617.713 276.961C619.172 276.961 620.326 277.366 621.177 278.174C622.027 278.983 622.452 279.986 622.452 281.182C622.452 281.79 622.328 282.388 622.079 282.976C621.83 283.564 621.415 284.182 620.834 284.832C620.26 285.482 619.303 286.374 617.962 287.508C616.842 288.448 616.123 289.088 615.805 289.427C615.487 289.758 615.224 290.094 615.016 290.432H622.473ZM624.485 284.729C624.485 282.931 624.668 281.486 625.034 280.394C625.408 279.295 625.957 278.448 626.683 277.853C627.416 277.258 628.336 276.961 629.442 276.961C630.258 276.961 630.973 277.127 631.589 277.459C632.204 277.784 632.712 278.257 633.113 278.88C633.514 279.495 633.829 280.249 634.057 281.14C634.285 282.025 634.399 283.221 634.399 284.729C634.399 286.512 634.216 287.954 633.849 289.053C633.483 290.146 632.933 290.992 632.2 291.594C631.474 292.189 630.555 292.486 629.442 292.486C627.976 292.486 626.825 291.96 625.988 290.91C624.986 289.644 624.485 287.584 624.485 284.729ZM626.403 284.729C626.403 287.225 626.694 288.887 627.274 289.717C627.862 290.54 628.585 290.951 629.442 290.951C630.299 290.951 631.018 290.536 631.599 289.707C632.187 288.877 632.48 287.218 632.48 284.729C632.48 282.226 632.187 280.563 631.599 279.74C631.018 278.918 630.292 278.506 629.421 278.506C628.564 278.506 627.879 278.869 627.368 279.595C626.725 280.522 626.403 282.233 626.403 284.729ZM646.118 290.432V292.227H636.069C636.055 291.777 636.127 291.345 636.286 290.93C636.542 290.246 636.95 289.572 637.51 288.908C638.077 288.244 638.893 287.477 639.958 286.606C641.61 285.251 642.727 284.179 643.307 283.391C643.888 282.596 644.178 281.846 644.178 281.14C644.178 280.401 643.912 279.778 643.38 279.274C642.854 278.762 642.167 278.506 641.316 278.506C640.417 278.506 639.698 278.776 639.159 279.315C638.62 279.855 638.347 280.601 638.34 281.555L636.421 281.358C636.553 279.927 637.047 278.838 637.904 278.092C638.762 277.338 639.913 276.961 641.358 276.961C642.816 276.961 643.971 277.366 644.821 278.174C645.672 278.983 646.097 279.986 646.097 281.182C646.097 281.79 645.972 282.388 645.724 282.976C645.475 283.564 645.06 284.182 644.479 284.832C643.905 285.482 642.948 286.374 641.606 287.508C640.486 288.448 639.767 289.088 639.449 289.427C639.131 289.758 638.869 290.094 638.661 290.432H646.118ZM648.13 284.729C648.13 282.931 648.313 281.486 648.679 280.394C649.053 279.295 649.602 278.448 650.328 277.853C651.061 277.258 651.98 276.961 653.087 276.961C653.902 276.961 654.618 277.127 655.233 277.459C655.849 277.784 656.357 278.257 656.758 278.88C657.159 279.495 657.473 280.249 657.702 281.14C657.93 282.025 658.044 283.221 658.044 284.729C658.044 286.512 657.861 287.954 657.494 289.053C657.128 290.146 656.578 290.992 655.845 291.594C655.119 292.189 654.2 292.486 653.087 292.486C651.621 292.486 650.47 291.96 649.633 290.91C648.631 289.644 648.13 287.584 648.13 284.729ZM650.048 284.729C650.048 287.225 650.338 288.887 650.919 289.717C651.507 290.54 652.229 290.951 653.087 290.951C653.944 290.951 654.663 290.536 655.244 289.707C655.831 288.877 656.125 287.218 656.125 284.729C656.125 282.226 655.831 280.563 655.244 279.74C654.663 278.918 653.937 278.506 653.066 278.506C652.209 278.506 651.524 278.869 651.013 279.595C650.37 280.522 650.048 282.233 650.048 284.729Z" fill="#222222"/>
<path d="M709.389 290.432V292.227H699.34C699.326 291.777 699.399 291.345 699.558 290.93C699.814 290.246 700.222 289.572 700.782 288.908C701.349 288.244 702.165 287.477 703.229 286.606C704.882 285.251 705.998 284.179 706.579 283.391C707.16 282.596 707.45 281.846 707.45 281.14C707.45 280.401 707.184 279.778 706.652 279.274C706.126 278.762 705.438 278.506 704.588 278.506C703.689 278.506 702.97 278.776 702.431 279.315C701.891 279.855 701.618 280.601 701.611 281.555L699.693 281.358C699.824 279.927 700.319 278.838 701.176 278.092C702.033 277.338 703.184 276.961 704.629 276.961C706.088 276.961 707.243 277.366 708.093 278.174C708.943 278.983 709.369 279.986 709.369 281.182C709.369 281.79 709.244 282.388 708.995 282.976C708.746 283.564 708.332 284.182 707.751 284.832C707.177 285.482 706.219 286.374 704.878 287.508C703.758 288.448 703.039 289.088 702.721 289.427C702.403 289.758 702.14 290.094 701.933 290.432H709.389ZM711.401 284.729C711.401 282.931 711.584 281.486 711.951 280.394C712.324 279.295 712.874 278.448 713.6 277.853C714.333 277.258 715.252 276.961 716.358 276.961C717.174 276.961 717.89 277.127 718.505 277.459C719.12 277.784 719.629 278.257 720.03 278.88C720.431 279.495 720.745 280.249 720.973 281.14C721.201 282.025 721.315 283.221 721.315 284.729C721.315 286.512 721.132 287.954 720.766 289.053C720.399 290.146 719.85 290.992 719.117 291.594C718.391 292.189 717.471 292.486 716.358 292.486C714.893 292.486 713.742 291.96 712.905 290.91C711.902 289.644 711.401 287.584 711.401 284.729ZM713.32 284.729C713.32 287.225 713.61 288.887 714.191 289.717C714.779 290.54 715.501 290.951 716.358 290.951C717.216 290.951 717.935 290.536 718.515 289.707C719.103 288.877 719.397 287.218 719.397 284.729C719.397 282.226 719.103 280.563 718.515 279.74C717.935 278.918 717.209 278.506 716.338 278.506C715.48 278.506 714.796 278.869 714.284 279.595C713.641 280.522 713.32 282.233 713.32 284.729ZM733.034 290.432V292.227H722.985C722.971 291.777 723.044 291.345 723.203 290.93C723.459 290.246 723.867 289.572 724.427 288.908C724.994 288.244 725.809 287.477 726.874 286.606C728.526 285.251 729.643 284.179 730.224 283.391C730.805 282.596 731.095 281.846 731.095 281.14C731.095 280.401 730.829 279.778 730.296 279.274C729.771 278.762 729.083 278.506 728.233 278.506C727.334 278.506 726.615 278.776 726.076 279.315C725.536 279.855 725.263 280.601 725.256 281.555L723.338 281.358C723.469 279.927 723.963 278.838 724.821 278.092C725.678 277.338 726.829 276.961 728.274 276.961C729.733 276.961 730.887 277.366 731.738 278.174C732.588 278.983 733.013 279.986 733.013 281.182C733.013 281.79 732.889 282.388 732.64 282.976C732.391 283.564 731.976 284.182 731.396 284.832C730.822 285.482 729.864 286.374 728.523 287.508C727.403 288.448 726.684 289.088 726.366 289.427C726.048 289.758 725.785 290.094 725.578 290.432H733.034ZM742.077 292.227H740.211V280.332C739.761 280.76 739.17 281.189 738.437 281.618C737.711 282.046 737.058 282.368 736.477 282.582V280.777C737.521 280.287 738.434 279.692 739.215 278.994C739.996 278.295 740.549 277.618 740.874 276.961H742.077V292.227Z" fill="#222222"/>
<path d="M796.305 290.432V292.227H786.256C786.242 291.777 786.314 291.345 786.473 290.93C786.729 290.246 787.137 289.572 787.697 288.908C788.264 288.244 789.08 287.477 790.145 286.606C791.797 285.251 792.913 284.179 793.494 283.391C794.075 282.596 794.365 281.846 794.365 281.14C794.365 280.401 794.099 279.778 793.567 279.274C793.041 278.762 792.353 278.506 791.503 278.506C790.604 278.506 789.885 278.776 789.346 279.315C788.807 279.855 788.534 280.601 788.527 281.555L786.608 281.358C786.74 279.927 787.234 278.838 788.091 278.092C788.948 277.338 790.1 276.961 791.545 276.961C793.003 276.961 794.158 277.366 795.008 278.174C795.859 278.983 796.284 279.986 796.284 281.182C796.284 281.79 796.159 282.388 795.911 282.976C795.662 283.564 795.247 284.182 794.666 284.832C794.092 285.482 793.135 286.374 791.793 287.508C790.673 288.448 789.954 289.088 789.636 289.427C789.318 289.758 789.056 290.094 788.848 290.432H796.305ZM798.317 284.729C798.317 282.931 798.5 281.486 798.866 280.394C799.24 279.295 799.789 278.448 800.515 277.853C801.248 277.258 802.167 276.961 803.274 276.961C804.089 276.961 804.805 277.127 805.42 277.459C806.036 277.784 806.544 278.257 806.945 278.88C807.346 279.495 807.66 280.249 807.889 281.14C808.117 282.025 808.231 283.221 808.231 284.729C808.231 286.512 808.048 287.954 807.681 289.053C807.315 290.146 806.765 290.992 806.032 291.594C805.306 292.189 804.387 292.486 803.274 292.486C801.808 292.486 800.657 291.96 799.82 290.91C798.818 289.644 798.317 287.584 798.317 284.729ZM800.235 284.729C800.235 287.225 800.525 288.887 801.106 289.717C801.694 290.54 802.416 290.951 803.274 290.951C804.131 290.951 804.85 290.536 805.431 289.707C806.018 288.877 806.312 287.218 806.312 284.729C806.312 282.226 806.018 280.563 805.431 279.74C804.85 278.918 804.124 278.506 803.253 278.506C802.396 278.506 801.711 278.869 801.2 279.595C800.557 280.522 800.235 282.233 800.235 284.729ZM819.949 290.432V292.227H809.9C809.887 291.777 809.959 291.345 810.118 290.93C810.374 290.246 810.782 289.572 811.342 288.908C811.909 288.244 812.725 287.477 813.789 286.606C815.442 285.251 816.558 284.179 817.139 283.391C817.72 282.596 818.01 281.846 818.01 281.14C818.01 280.401 817.744 279.778 817.212 279.274C816.686 278.762 815.998 278.506 815.148 278.506C814.249 278.506 813.53 278.776 812.991 279.315C812.452 279.855 812.178 280.601 812.172 281.555L810.253 281.358C810.384 279.927 810.879 278.838 811.736 278.092C812.593 277.338 813.744 276.961 815.189 276.961C816.648 276.961 817.803 277.366 818.653 278.174C819.504 278.983 819.929 279.986 819.929 281.182C819.929 281.79 819.804 282.388 819.555 282.976C819.306 283.564 818.892 284.182 818.311 284.832C817.737 285.482 816.78 286.374 815.438 287.508C814.318 288.448 813.599 289.088 813.281 289.427C812.963 289.758 812.7 290.094 812.493 290.432H819.949ZM831.772 290.432V292.227H821.723C821.709 291.777 821.782 291.345 821.941 290.93C822.196 290.246 822.604 289.572 823.164 288.908C823.731 288.244 824.547 287.477 825.612 286.606C827.264 285.251 828.381 284.179 828.961 283.391C829.542 282.596 829.833 281.846 829.833 281.14C829.833 280.401 829.566 279.778 829.034 279.274C828.509 278.762 827.821 278.506 826.97 278.506C826.072 278.506 825.353 278.776 824.813 279.315C824.274 279.855 824.001 280.601 823.994 281.555L822.075 281.358C822.207 279.927 822.701 278.838 823.558 278.092C824.416 277.338 825.567 276.961 827.012 276.961C828.471 276.961 829.625 277.366 830.476 278.174C831.326 278.983 831.751 279.986 831.751 281.182C831.751 281.79 831.627 282.388 831.378 282.976C831.129 283.564 830.714 284.182 830.133 284.832C829.559 285.482 828.602 286.374 827.261 287.508C826.141 288.448 825.422 289.088 825.104 289.427C824.786 289.758 824.523 290.094 824.315 290.432H831.772Z" fill="#222222"/>
<path d="M1.04535 255.58V253.702H6.78026V255.58H1.04535ZM15.3567 260.143H13.49V248.248C13.0406 248.676 12.4495 249.105 11.7166 249.534C10.9907 249.962 10.3374 250.284 9.7566 250.498V248.694C10.8006 248.203 11.7132 247.608 12.4944 246.91C13.2757 246.211 13.8288 245.534 14.1537 244.877H15.3567V260.143ZM21.1953 260.143V258.017H23.3213V260.143H21.1953ZM35.8696 258.348V260.143H25.8206C25.8067 259.693 25.8793 259.261 26.0383 258.846C26.2942 258.162 26.7021 257.488 27.2621 256.824C27.829 256.16 28.6448 255.393 29.7095 254.522C31.3619 253.167 32.4784 252.095 33.0592 251.307C33.6399 250.512 33.9303 249.762 33.9303 249.056C33.9303 248.317 33.6641 247.694 33.1318 247.19C32.6063 246.678 31.9184 246.422 31.0681 246.422C30.1693 246.422 29.4502 246.692 28.911 247.231C28.3717 247.771 28.0986 248.517 28.0917 249.471L26.1732 249.274C26.3045 247.843 26.7988 246.754 27.6561 246.008C28.5134 245.254 29.6646 244.877 31.1095 244.877C32.5683 244.877 33.7229 245.282 34.5733 246.091C35.4237 246.899 35.8489 247.902 35.8489 249.098C35.8489 249.706 35.7244 250.304 35.4755 250.892C35.2266 251.48 34.8118 252.098 34.2311 252.748C33.6572 253.398 32.6997 254.29 31.3584 255.424C30.2384 256.364 29.5194 257.004 29.2014 257.343C28.8833 257.674 28.6206 258.01 28.4132 258.348H35.8696Z" fill="#444444"/>
<path d="M26.1419 172.264C26.1419 170.466 26.3251 169.021 26.6915 167.929C27.0649 166.83 27.6145 165.983 28.3405 165.388C29.0733 164.794 29.9928 164.496 31.099 164.496C31.9148 164.496 32.6304 164.662 33.2457 164.994C33.861 165.319 34.3692 165.793 34.7702 166.415C35.1712 167.03 35.4858 167.784 35.7139 168.676C35.9421 169.561 36.0561 170.757 36.0561 172.264C36.0561 174.048 35.8729 175.489 35.5065 176.588C35.1401 177.681 34.5904 178.528 33.8576 179.129C33.1317 179.724 32.2121 180.021 31.099 180.021C29.6333 180.021 28.4822 179.496 27.6456 178.445C26.6432 177.179 26.1419 175.119 26.1419 172.264ZM28.0605 172.264C28.0605 174.76 28.3508 176.422 28.9316 177.252C29.5192 178.075 30.2417 178.486 31.099 178.486C31.9563 178.486 32.6753 178.071 33.2561 177.242C33.8438 176.412 34.1376 174.753 34.1376 172.264C34.1376 169.761 33.8438 168.098 33.2561 167.276C32.6753 166.453 31.9494 166.042 31.0783 166.042C30.221 166.042 29.5365 166.404 29.0249 167.13C28.3819 168.057 28.0605 169.768 28.0605 172.264Z" fill="#444444"/>
<path d="M15.3567 99.381H13.49V87.486C13.0406 87.9146 12.4495 88.3433 11.7166 88.7719C10.9907 89.2006 10.3374 89.5221 9.7566 89.7364V87.9319C10.8006 87.441 11.7132 86.8465 12.4944 86.1482C13.2757 85.4499 13.8288 84.7724 14.1537 84.1156H15.3567V99.381ZM21.1953 99.381V97.255H23.3213V99.381H21.1953ZM35.8696 97.5869V99.381H25.8206C25.8067 98.9316 25.8793 98.4995 26.0383 98.0847C26.2942 97.4002 26.7021 96.7261 27.2621 96.0624C27.829 95.3987 28.6448 94.6313 29.7095 93.7602C31.3619 92.4051 32.4784 91.3334 33.0592 90.5453C33.6399 89.7502 33.9303 89.0001 33.9303 88.2949C33.9303 87.5551 33.6641 86.9329 33.1318 86.4282C32.6063 85.9166 31.9184 85.6608 31.0681 85.6608C30.1693 85.6608 29.4502 85.9304 28.911 86.4697C28.3717 87.0089 28.0986 87.7556 28.0917 88.7097L26.1732 88.5127C26.3045 87.0815 26.7988 85.9926 27.6561 85.2459C28.5134 84.4924 29.6646 84.1156 31.1095 84.1156C32.5683 84.1156 33.7229 84.52 34.5733 85.3289C35.4237 86.1378 35.8489 87.1403 35.8489 88.3364C35.8489 88.9448 35.7244 89.5428 35.4755 90.1305C35.2266 90.7181 34.8118 91.3369 34.2311 91.9868C33.6572 92.6367 32.6997 93.5285 31.3584 94.6624C30.2384 95.6026 29.5194 96.2422 29.2014 96.5809C28.8833 96.9128 28.6206 97.2481 28.4132 97.5869H35.8696Z" fill="#444444"/>
<path d="M17.066 17.2059V19H7.01691C7.00308 18.5506 7.07568 18.1185 7.23469 17.7037C7.4905 17.0192 7.89841 16.3451 8.45842 15.6814C9.02534 15.0177 9.84115 14.2503 10.9059 13.3792C12.5582 12.0241 13.6748 10.9525 14.2555 10.1643C14.8363 9.36923 15.1267 8.61909 15.1267 7.9139C15.1267 7.17413 14.8605 6.5519 14.3281 6.0472C13.8027 5.53559 13.1148 5.27978 12.2644 5.27978C11.3656 5.27978 10.6466 5.54942 10.1073 6.08868C9.56806 6.62795 9.29497 7.37463 9.28806 8.32872L7.36951 8.13168C7.50087 6.70055 7.9952 5.61164 8.8525 4.86496C9.70979 4.11137 10.8609 3.73457 12.3059 3.73457C13.7647 3.73457 14.9193 4.13902 15.7696 4.94793C16.62 5.75683 17.0452 6.75931 17.0452 7.95538C17.0452 8.56379 16.9208 9.16182 16.6719 9.74948C16.423 10.3371 16.0082 10.9559 15.4274 11.6058C14.8536 12.2557 13.896 13.1476 12.5548 14.2814C11.4348 15.2217 10.7157 15.8612 10.3977 16.2C10.0797 16.5318 9.81696 16.8671 9.60954 17.2059H17.066ZM20.1253 19V16.874H22.2512V19H20.1253ZM30.9728 19V15.3599H24.3772V13.6488L31.3151 3.7968H32.8395V13.6488H34.8929V15.3599H32.8395V19H30.9728ZM30.9728 13.6488V6.79388L26.2128 13.6488H30.9728Z" fill="#444444"/>
<path d="M74.93 252.227L856.93 252.227" stroke="#E7E7E7"/>
<path d="M73.93 171.227L855.93 171.227" stroke="#E7E7E7"/>
<path d="M73.93 90.2266L855.93 90.2266" stroke="#E7E7E7"/>
<path d="M73.93 9.22656L855.93 9.22663" stroke="#E7E7E7"/>
<path d="M113.93 252.227V9.22656" stroke="#E7E7E7"/>
<path d="M200.93 252.227V9.22656" stroke="#E7E7E7"/>
<path d="M287.93 252.227V9.22656" stroke="#E7E7E7"/>
<path d="M374.93 252.227V9.22656" stroke="#E7E7E7"/>
<path d="M461.93 252.227V9.22656" stroke="#E7E7E7"/>
<path d="M548.93 252.227V9.22656" stroke="#E7E7E7"/>
<path d="M634.93 252.227V9.22656" stroke="#E7E7E7"/>
<path d="M721.93 252.227V9.22656" stroke="#E7E7E7"/>
<path d="M808.93 252.227V9.22656" stroke="#E7E7E7"/>
<circle cx="114" cy="171" r="7" fill="#1BD972"/>
<circle cx="201" cy="217" r="7" fill="#1BD972"/>
<circle cx="288" cy="104" r="7" fill="#1BD972"/>
<circle cx="375" cy="90" r="7" fill="#1BD972"/>
<circle cx="462" cy="111" r="7" fill="#1BD972"/>
<circle cx="549" cy="173" r="7" fill="#1BD972"/>
<circle cx="635" cy="157" r="7" fill="#1BD972"/>
<circle cx="722" cy="111" r="7" fill="#1BD972"/>
<circle cx="809" cy="28" r="7" fill="#1BD972"/>
</svg>
