<svg width="1014" height="299" viewBox="0 0 1014 299" fill="none" xmlns="http://www.w3.org/2000/svg">
<path d="M46.9771 291.432V293.227H36.9281C36.9143 292.777 36.9869 292.345 37.1459 291.93C37.4017 291.246 37.8096 290.572 38.3696 289.908C38.9365 289.244 39.7523 288.477 40.817 287.606C42.4694 286.251 43.586 285.179 44.1667 284.391C44.7475 283.596 45.0378 282.846 45.0378 282.14C45.0378 281.401 44.7717 280.778 44.2393 280.274C43.7139 279.762 43.026 279.506 42.1756 279.506C41.2768 279.506 40.5578 279.776 40.0185 280.315C39.4792 280.855 39.2061 281.601 39.1992 282.555L37.2807 282.358C37.412 280.927 37.9064 279.838 38.7637 279.092C39.621 278.338 40.7721 277.961 42.2171 277.961C43.6758 277.961 44.8304 278.366 45.6808 279.174C46.5312 279.983 46.9564 280.986 46.9564 282.182C46.9564 282.79 46.8319 283.388 46.5831 283.976C46.3342 284.564 45.9193 285.182 45.3386 285.832C44.7648 286.482 43.8072 287.374 42.466 288.508C41.3459 289.448 40.6269 290.088 40.3089 290.427C39.9909 290.758 39.7281 291.094 39.5207 291.432H46.9771ZM48.989 285.729C48.989 283.931 49.1722 282.486 49.5387 281.394C49.912 280.295 50.4616 279.448 51.1876 278.853C51.9204 278.258 52.8399 277.961 53.9461 277.961C54.7619 277.961 55.4775 278.127 56.0928 278.459C56.7082 278.784 57.2163 279.257 57.6173 279.88C58.0183 280.495 58.3329 281.249 58.561 282.14C58.7892 283.025 58.9032 284.221 58.9032 285.729C58.9032 287.512 58.72 288.954 58.3536 290.053C57.9872 291.146 57.4375 291.992 56.7047 292.594C55.9788 293.189 55.0592 293.486 53.9461 293.486C52.4804 293.486 51.3293 292.96 50.4927 291.91C49.4903 290.644 48.989 288.584 48.989 285.729ZM50.9076 285.729C50.9076 288.225 51.1979 289.887 51.7787 290.717C52.3664 291.54 53.0888 291.951 53.9461 291.951C54.8034 291.951 55.5225 291.536 56.1032 290.707C56.6909 289.877 56.9847 288.218 56.9847 285.729C56.9847 283.226 56.6909 281.563 56.1032 280.74C55.5225 279.918 54.7965 279.506 53.9254 279.506C53.0681 279.506 52.3836 279.869 51.872 280.595C51.2291 281.522 50.9076 283.233 50.9076 285.729ZM67.8426 293.227H65.976V281.332C65.5266 281.76 64.9354 282.189 64.2026 282.618C63.4767 283.046 62.8233 283.368 62.2426 283.582V281.777C63.2865 281.287 64.1991 280.692 64.9804 279.994C65.7616 279.295 66.3147 278.618 66.6397 277.961H67.8426V293.227ZM78.6176 293.227V289.587H72.022V287.875L78.9599 278.023H80.4843V287.875H82.5377V289.587H80.4843V293.227H78.6176ZM78.6176 287.875V281.02L73.8576 287.875H78.6176Z" fill="#222222"/>
<path d="M162.977 291.432V293.227H152.928C152.914 292.777 152.987 292.345 153.146 291.93C153.402 291.246 153.81 290.572 154.37 289.908C154.937 289.244 155.752 288.477 156.817 287.606C158.469 286.251 159.586 285.179 160.167 284.391C160.747 283.596 161.038 282.846 161.038 282.14C161.038 281.401 160.772 280.778 160.239 280.274C159.714 279.762 159.026 279.506 158.176 279.506C157.277 279.506 156.558 279.776 156.019 280.315C155.479 280.855 155.206 281.601 155.199 282.555L153.281 282.358C153.412 280.927 153.906 279.838 154.764 279.092C155.621 278.338 156.772 277.961 158.217 277.961C159.676 277.961 160.83 278.366 161.681 279.174C162.531 279.983 162.956 280.986 162.956 282.182C162.956 282.79 162.832 283.388 162.583 283.976C162.334 284.564 161.919 285.182 161.339 285.832C160.765 286.482 159.807 287.374 158.466 288.508C157.346 289.448 156.627 290.088 156.309 290.427C155.991 290.758 155.728 291.094 155.521 291.432H162.977ZM164.989 285.729C164.989 283.931 165.172 282.486 165.539 281.394C165.912 280.295 166.462 279.448 167.188 278.853C167.92 278.258 168.84 277.961 169.946 277.961C170.762 277.961 171.478 278.127 172.093 278.459C172.708 278.784 173.216 279.257 173.617 279.88C174.018 280.495 174.333 281.249 174.561 282.14C174.789 283.025 174.903 284.221 174.903 285.729C174.903 287.512 174.72 288.954 174.354 290.053C173.987 291.146 173.438 291.992 172.705 292.594C171.979 293.189 171.059 293.486 169.946 293.486C168.48 293.486 167.329 292.96 166.493 291.91C165.49 290.644 164.989 288.584 164.989 285.729ZM166.908 285.729C166.908 288.225 167.198 289.887 167.779 290.717C168.366 291.54 169.089 291.951 169.946 291.951C170.803 291.951 171.522 291.536 172.103 290.707C172.691 289.877 172.985 288.218 172.985 285.729C172.985 283.226 172.691 281.563 172.103 280.74C171.522 279.918 170.797 279.506 169.925 279.506C169.068 279.506 168.384 279.869 167.872 280.595C167.229 281.522 166.908 283.233 166.908 285.729ZM183.843 293.227H181.976V281.332C181.527 281.76 180.935 282.189 180.203 282.618C179.477 283.046 178.823 283.368 178.243 283.582V281.777C179.287 281.287 180.199 280.692 180.98 279.994C181.762 279.295 182.315 278.618 182.64 277.961H183.843V293.227ZM188.634 289.244L190.594 289.078C190.739 290.032 191.074 290.751 191.6 291.235C192.132 291.712 192.772 291.951 193.518 291.951C194.417 291.951 195.178 291.612 195.8 290.935C196.422 290.257 196.733 289.358 196.733 288.238C196.733 287.174 196.432 286.334 195.831 285.718C195.236 285.103 194.455 284.795 193.487 284.795C192.886 284.795 192.343 284.934 191.859 285.21C191.375 285.48 190.995 285.832 190.718 286.268L188.966 286.04L190.438 278.231H197.998V280.015H191.932L191.112 284.1C192.025 283.464 192.983 283.146 193.985 283.146C195.312 283.146 196.432 283.606 197.345 284.526C198.258 285.445 198.714 286.627 198.714 288.072C198.714 289.448 198.313 290.637 197.511 291.64C196.536 292.871 195.205 293.486 193.518 293.486C192.136 293.486 191.005 293.099 190.127 292.324C189.256 291.55 188.758 290.523 188.634 289.244Z" fill="#222222"/>
<path d="M278.977 291.432V293.227H268.928C268.914 292.777 268.987 292.345 269.146 291.93C269.402 291.246 269.81 290.572 270.37 289.908C270.937 289.244 271.752 288.477 272.817 287.606C274.469 286.251 275.586 285.179 276.167 284.391C276.747 283.596 277.038 282.846 277.038 282.14C277.038 281.401 276.772 280.778 276.239 280.274C275.714 279.762 275.026 279.506 274.176 279.506C273.277 279.506 272.558 279.776 272.019 280.315C271.479 280.855 271.206 281.601 271.199 282.555L269.281 282.358C269.412 280.927 269.906 279.838 270.764 279.092C271.621 278.338 272.772 277.961 274.217 277.961C275.676 277.961 276.83 278.366 277.681 279.174C278.531 279.983 278.956 280.986 278.956 282.182C278.956 282.79 278.832 283.388 278.583 283.976C278.334 284.564 277.919 285.182 277.339 285.832C276.765 286.482 275.807 287.374 274.466 288.508C273.346 289.448 272.627 290.088 272.309 290.427C271.991 290.758 271.728 291.094 271.521 291.432H278.977ZM280.989 285.729C280.989 283.931 281.172 282.486 281.539 281.394C281.912 280.295 282.462 279.448 283.188 278.853C283.92 278.258 284.84 277.961 285.946 277.961C286.762 277.961 287.478 278.127 288.093 278.459C288.708 278.784 289.216 279.257 289.617 279.88C290.018 280.495 290.333 281.249 290.561 282.14C290.789 283.025 290.903 284.221 290.903 285.729C290.903 287.512 290.72 288.954 290.354 290.053C289.987 291.146 289.438 291.992 288.705 292.594C287.979 293.189 287.059 293.486 285.946 293.486C284.48 293.486 283.329 292.96 282.493 291.91C281.49 290.644 280.989 288.584 280.989 285.729ZM282.908 285.729C282.908 288.225 283.198 289.887 283.779 290.717C284.366 291.54 285.089 291.951 285.946 291.951C286.803 291.951 287.522 291.536 288.103 290.707C288.691 289.877 288.985 288.218 288.985 285.729C288.985 283.226 288.691 281.563 288.103 280.74C287.522 279.918 286.797 279.506 285.925 279.506C285.068 279.506 284.384 279.869 283.872 280.595C283.229 281.522 282.908 283.233 282.908 285.729ZM299.843 293.227H297.976V281.332C297.527 281.76 296.935 282.189 296.203 282.618C295.477 283.046 294.823 283.368 294.243 283.582V281.777C295.287 281.287 296.199 280.692 296.98 279.994C297.762 279.295 298.315 278.618 298.64 277.961H299.843V293.227ZM314.32 281.746L312.464 281.892C312.298 281.159 312.063 280.626 311.758 280.295C311.254 279.762 310.631 279.496 309.892 279.496C309.297 279.496 308.775 279.662 308.326 279.994C307.738 280.422 307.275 281.048 306.936 281.871C306.597 282.694 306.421 283.865 306.407 285.386C306.857 284.702 307.406 284.194 308.056 283.862C308.706 283.53 309.387 283.364 310.099 283.364C311.344 283.364 312.401 283.824 313.272 284.743C314.151 285.656 314.59 286.838 314.59 288.29C314.59 289.244 314.382 290.133 313.967 290.955C313.559 291.771 312.996 292.397 312.277 292.832C311.558 293.268 310.742 293.486 309.829 293.486C308.274 293.486 307.005 292.915 306.023 291.775C305.042 290.627 304.551 288.74 304.551 286.112C304.551 283.174 305.094 281.038 306.179 279.703C307.126 278.542 308.402 277.961 310.006 277.961C311.202 277.961 312.18 278.296 312.941 278.967C313.708 279.638 314.168 280.564 314.32 281.746ZM306.698 288.301C306.698 288.944 306.832 289.559 307.102 290.147C307.379 290.734 307.762 291.184 308.253 291.495C308.744 291.799 309.259 291.951 309.798 291.951C310.587 291.951 311.264 291.633 311.831 290.997C312.398 290.361 312.681 289.497 312.681 288.404C312.681 287.353 312.401 286.527 311.841 285.926C311.281 285.317 310.576 285.013 309.726 285.013C308.882 285.013 308.167 285.317 307.579 285.926C306.991 286.527 306.698 287.319 306.698 288.301Z" fill="#222222"/>
<path d="M394.977 291.432V293.227H384.928C384.914 292.777 384.987 292.345 385.146 291.93C385.402 291.246 385.81 290.572 386.37 289.908C386.937 289.244 387.752 288.477 388.817 287.606C390.469 286.251 391.586 285.179 392.167 284.391C392.747 283.596 393.038 282.846 393.038 282.14C393.038 281.401 392.772 280.778 392.239 280.274C391.714 279.762 391.026 279.506 390.176 279.506C389.277 279.506 388.558 279.776 388.019 280.315C387.479 280.855 387.206 281.601 387.199 282.555L385.281 282.358C385.412 280.927 385.906 279.838 386.764 279.092C387.621 278.338 388.772 277.961 390.217 277.961C391.676 277.961 392.83 278.366 393.681 279.174C394.531 279.983 394.956 280.986 394.956 282.182C394.956 282.79 394.832 283.388 394.583 283.976C394.334 284.564 393.919 285.182 393.339 285.832C392.765 286.482 391.807 287.374 390.466 288.508C389.346 289.448 388.627 290.088 388.309 290.427C387.991 290.758 387.728 291.094 387.521 291.432H394.977ZM396.989 285.729C396.989 283.931 397.172 282.486 397.539 281.394C397.912 280.295 398.462 279.448 399.188 278.853C399.92 278.258 400.84 277.961 401.946 277.961C402.762 277.961 403.478 278.127 404.093 278.459C404.708 278.784 405.216 279.257 405.617 279.88C406.018 280.495 406.333 281.249 406.561 282.14C406.789 283.025 406.903 284.221 406.903 285.729C406.903 287.512 406.72 288.954 406.354 290.053C405.987 291.146 405.438 291.992 404.705 292.594C403.979 293.189 403.059 293.486 401.946 293.486C400.48 293.486 399.329 292.96 398.493 291.91C397.49 290.644 396.989 288.584 396.989 285.729ZM398.908 285.729C398.908 288.225 399.198 289.887 399.779 290.717C400.366 291.54 401.089 291.951 401.946 291.951C402.803 291.951 403.522 291.536 404.103 290.707C404.691 289.877 404.985 288.218 404.985 285.729C404.985 283.226 404.691 281.563 404.103 280.74C403.522 279.918 402.797 279.506 401.925 279.506C401.068 279.506 400.384 279.869 399.872 280.595C399.229 281.522 398.908 283.233 398.908 285.729ZM415.843 293.227H413.976V281.332C413.527 281.76 412.935 282.189 412.203 282.618C411.477 283.046 410.823 283.368 410.243 283.582V281.777C411.287 281.287 412.199 280.692 412.98 279.994C413.762 279.295 414.315 278.618 414.64 277.961H415.843V293.227ZM420.758 280.015V278.22H430.6V279.672C429.632 280.702 428.671 282.071 427.717 283.779C426.77 285.487 426.037 287.243 425.518 289.047C425.145 290.319 424.906 291.712 424.803 293.227H422.884C422.905 292.03 423.14 290.586 423.589 288.892C424.039 287.198 424.682 285.566 425.518 283.997C426.362 282.42 427.257 281.093 428.204 280.015H420.758Z" fill="#222222"/>
<path d="M510.977 291.432V293.227H500.928C500.914 292.777 500.987 292.345 501.146 291.93C501.402 291.246 501.81 290.572 502.37 289.908C502.937 289.244 503.752 288.477 504.817 287.606C506.469 286.251 507.586 285.179 508.167 284.391C508.747 283.596 509.038 282.846 509.038 282.14C509.038 281.401 508.772 280.778 508.239 280.274C507.714 279.762 507.026 279.506 506.176 279.506C505.277 279.506 504.558 279.776 504.019 280.315C503.479 280.855 503.206 281.601 503.199 282.555L501.281 282.358C501.412 280.927 501.906 279.838 502.764 279.092C503.621 278.338 504.772 277.961 506.217 277.961C507.676 277.961 508.83 278.366 509.681 279.174C510.531 279.983 510.956 280.986 510.956 282.182C510.956 282.79 510.832 283.388 510.583 283.976C510.334 284.564 509.919 285.182 509.339 285.832C508.765 286.482 507.807 287.374 506.466 288.508C505.346 289.448 504.627 290.088 504.309 290.427C503.991 290.758 503.728 291.094 503.521 291.432H510.977ZM512.989 285.729C512.989 283.931 513.172 282.486 513.539 281.394C513.912 280.295 514.462 279.448 515.188 278.853C515.92 278.258 516.84 277.961 517.946 277.961C518.762 277.961 519.478 278.127 520.093 278.459C520.708 278.784 521.216 279.257 521.617 279.88C522.018 280.495 522.333 281.249 522.561 282.14C522.789 283.025 522.903 284.221 522.903 285.729C522.903 287.512 522.72 288.954 522.354 290.053C521.987 291.146 521.438 291.992 520.705 292.594C519.979 293.189 519.059 293.486 517.946 293.486C516.48 293.486 515.329 292.96 514.493 291.91C513.49 290.644 512.989 288.584 512.989 285.729ZM514.908 285.729C514.908 288.225 515.198 289.887 515.779 290.717C516.366 291.54 517.089 291.951 517.946 291.951C518.803 291.951 519.522 291.536 520.103 290.707C520.691 289.877 520.985 288.218 520.985 285.729C520.985 283.226 520.691 281.563 520.103 280.74C519.522 279.918 518.797 279.506 517.925 279.506C517.068 279.506 516.384 279.869 515.872 280.595C515.229 281.522 514.908 283.233 514.908 285.729ZM531.843 293.227H529.976V281.332C529.527 281.76 528.935 282.189 528.203 282.618C527.477 283.046 526.823 283.368 526.243 283.582V281.777C527.287 281.287 528.199 280.692 528.98 279.994C529.762 279.295 530.315 278.618 530.64 277.961H531.843V293.227ZM539.506 284.982C538.732 284.699 538.158 284.294 537.785 283.769C537.412 283.243 537.225 282.614 537.225 281.881C537.225 280.775 537.622 279.845 538.418 279.092C539.213 278.338 540.27 277.961 541.591 277.961C542.918 277.961 543.987 278.348 544.795 279.123C545.604 279.89 546.009 280.827 546.009 281.933C546.009 282.638 545.822 283.254 545.449 283.779C545.082 284.298 544.522 284.699 543.769 284.982C544.702 285.286 545.411 285.777 545.895 286.455C546.386 287.132 546.631 287.941 546.631 288.881C546.631 290.181 546.171 291.273 545.252 292.158C544.332 293.043 543.122 293.486 541.622 293.486C540.122 293.486 538.912 293.043 537.992 292.158C537.073 291.267 536.613 290.157 536.613 288.829C536.613 287.841 536.862 287.015 537.36 286.351C537.864 285.68 538.58 285.224 539.506 284.982ZM539.133 281.819C539.133 282.538 539.365 283.126 539.828 283.582C540.291 284.038 540.893 284.266 541.632 284.266C542.351 284.266 542.939 284.042 543.395 283.592C543.859 283.136 544.09 282.579 544.09 281.923C544.09 281.238 543.852 280.664 543.375 280.201C542.905 279.731 542.317 279.496 541.612 279.496C540.9 279.496 540.308 279.724 539.838 280.18C539.368 280.637 539.133 281.183 539.133 281.819ZM538.532 288.84C538.532 289.372 538.656 289.887 538.905 290.385C539.161 290.883 539.538 291.27 540.035 291.547C540.533 291.816 541.069 291.951 541.643 291.951C542.535 291.951 543.271 291.664 543.852 291.09C544.432 290.516 544.723 289.787 544.723 288.902C544.723 288.003 544.422 287.26 543.821 286.672C543.226 286.085 542.479 285.791 541.581 285.791C540.703 285.791 539.973 286.081 539.392 286.662C538.819 287.243 538.532 287.969 538.532 288.84Z" fill="#222222"/>
<path d="M626.977 291.432V293.227H616.928C616.914 292.777 616.987 292.345 617.146 291.93C617.402 291.246 617.81 290.572 618.37 289.908C618.937 289.244 619.752 288.477 620.817 287.606C622.469 286.251 623.586 285.179 624.167 284.391C624.747 283.596 625.038 282.846 625.038 282.14C625.038 281.401 624.772 280.778 624.239 280.274C623.714 279.762 623.026 279.506 622.176 279.506C621.277 279.506 620.558 279.776 620.019 280.315C619.479 280.855 619.206 281.601 619.199 282.555L617.281 282.358C617.412 280.927 617.906 279.838 618.764 279.092C619.621 278.338 620.772 277.961 622.217 277.961C623.676 277.961 624.83 278.366 625.681 279.174C626.531 279.983 626.956 280.986 626.956 282.182C626.956 282.79 626.832 283.388 626.583 283.976C626.334 284.564 625.919 285.182 625.339 285.832C624.765 286.482 623.807 287.374 622.466 288.508C621.346 289.448 620.627 290.088 620.309 290.427C619.991 290.758 619.728 291.094 619.521 291.432H626.977ZM628.989 285.729C628.989 283.931 629.172 282.486 629.539 281.394C629.912 280.295 630.462 279.448 631.188 278.853C631.92 278.258 632.84 277.961 633.946 277.961C634.762 277.961 635.478 278.127 636.093 278.459C636.708 278.784 637.216 279.257 637.617 279.88C638.018 280.495 638.333 281.249 638.561 282.14C638.789 283.025 638.903 284.221 638.903 285.729C638.903 287.512 638.72 288.954 638.354 290.053C637.987 291.146 637.438 291.992 636.705 292.594C635.979 293.189 635.059 293.486 633.946 293.486C632.48 293.486 631.329 292.96 630.493 291.91C629.49 290.644 628.989 288.584 628.989 285.729ZM630.908 285.729C630.908 288.225 631.198 289.887 631.779 290.717C632.366 291.54 633.089 291.951 633.946 291.951C634.803 291.951 635.522 291.536 636.103 290.707C636.691 289.877 636.985 288.218 636.985 285.729C636.985 283.226 636.691 281.563 636.103 280.74C635.522 279.918 634.797 279.506 633.925 279.506C633.068 279.506 632.384 279.869 631.872 280.595C631.229 281.522 630.908 283.233 630.908 285.729ZM647.843 293.227H645.976V281.332C645.527 281.76 644.935 282.189 644.203 282.618C643.477 283.046 642.823 283.368 642.243 283.582V281.777C643.287 281.287 644.199 280.692 644.98 279.994C645.762 279.295 646.315 278.618 646.64 277.961H647.843V293.227ZM652.914 289.711L654.708 289.545C654.86 290.388 655.15 291 655.579 291.381C656.008 291.761 656.557 291.951 657.228 291.951C657.802 291.951 658.303 291.82 658.732 291.557C659.167 291.294 659.523 290.945 659.8 290.509C660.076 290.067 660.308 289.472 660.495 288.726C660.681 287.979 660.775 287.219 660.775 286.444C660.775 286.361 660.771 286.237 660.764 286.071C660.391 286.665 659.879 287.149 659.229 287.523C658.587 287.889 657.888 288.072 657.135 288.072C655.876 288.072 654.812 287.616 653.941 286.703C653.069 285.791 652.634 284.588 652.634 283.095C652.634 281.553 653.087 280.312 653.992 279.372C654.905 278.431 656.046 277.961 657.415 277.961C658.403 277.961 659.306 278.227 660.121 278.76C660.944 279.292 661.566 280.053 661.988 281.041C662.417 282.023 662.631 283.447 662.631 285.314C662.631 287.257 662.42 288.805 661.998 289.96C661.577 291.108 660.948 291.982 660.111 292.584C659.281 293.185 658.307 293.486 657.187 293.486C655.997 293.486 655.026 293.157 654.272 292.501C653.519 291.837 653.066 290.907 652.914 289.711ZM660.557 283.001C660.557 281.93 660.27 281.079 659.696 280.45C659.129 279.821 658.445 279.506 657.643 279.506C656.813 279.506 656.091 279.845 655.475 280.523C654.86 281.2 654.552 282.078 654.552 283.157C654.552 284.125 654.843 284.913 655.424 285.521C656.011 286.123 656.734 286.423 657.591 286.423C658.455 286.423 659.164 286.123 659.717 285.521C660.277 284.913 660.557 284.073 660.557 283.001Z" fill="#222222"/>
<path d="M742.977 291.432V293.227H732.928C732.914 292.777 732.987 292.345 733.146 291.93C733.402 291.246 733.81 290.572 734.37 289.908C734.937 289.244 735.752 288.477 736.817 287.606C738.469 286.251 739.586 285.179 740.167 284.391C740.747 283.596 741.038 282.846 741.038 282.14C741.038 281.401 740.772 280.778 740.239 280.274C739.714 279.762 739.026 279.506 738.176 279.506C737.277 279.506 736.558 279.776 736.019 280.315C735.479 280.855 735.206 281.601 735.199 282.555L733.281 282.358C733.412 280.927 733.906 279.838 734.764 279.092C735.621 278.338 736.772 277.961 738.217 277.961C739.676 277.961 740.83 278.366 741.681 279.174C742.531 279.983 742.956 280.986 742.956 282.182C742.956 282.79 742.832 283.388 742.583 283.976C742.334 284.564 741.919 285.182 741.339 285.832C740.765 286.482 739.807 287.374 738.466 288.508C737.346 289.448 736.627 290.088 736.309 290.427C735.991 290.758 735.728 291.094 735.521 291.432H742.977ZM744.989 285.729C744.989 283.931 745.172 282.486 745.539 281.394C745.912 280.295 746.462 279.448 747.188 278.853C747.92 278.258 748.84 277.961 749.946 277.961C750.762 277.961 751.478 278.127 752.093 278.459C752.708 278.784 753.216 279.257 753.617 279.88C754.018 280.495 754.333 281.249 754.561 282.14C754.789 283.025 754.903 284.221 754.903 285.729C754.903 287.512 754.72 288.954 754.354 290.053C753.987 291.146 753.438 291.992 752.705 292.594C751.979 293.189 751.059 293.486 749.946 293.486C748.48 293.486 747.329 292.96 746.493 291.91C745.49 290.644 744.989 288.584 744.989 285.729ZM746.908 285.729C746.908 288.225 747.198 289.887 747.779 290.717C748.366 291.54 749.089 291.951 749.946 291.951C750.803 291.951 751.522 291.536 752.103 290.707C752.691 289.877 752.985 288.218 752.985 285.729C752.985 283.226 752.691 281.563 752.103 280.74C751.522 279.918 750.797 279.506 749.925 279.506C749.068 279.506 748.384 279.869 747.872 280.595C747.229 281.522 746.908 283.233 746.908 285.729ZM766.622 291.432V293.227H756.573C756.559 292.777 756.632 292.345 756.791 291.93C757.046 291.246 757.454 290.572 758.014 289.908C758.581 289.244 759.397 288.477 760.462 287.606C762.114 286.251 763.231 285.179 763.812 284.391C764.392 283.596 764.683 282.846 764.683 282.14C764.683 281.401 764.416 280.778 763.884 280.274C763.359 279.762 762.671 279.506 761.82 279.506C760.922 279.506 760.203 279.776 759.663 280.315C759.124 280.855 758.851 281.601 758.844 282.555L756.926 282.358C757.057 280.927 757.551 279.838 758.408 279.092C759.266 278.338 760.417 277.961 761.862 277.961C763.321 277.961 764.475 278.366 765.326 279.174C766.176 279.983 766.601 280.986 766.601 282.182C766.601 282.79 766.477 283.388 766.228 283.976C765.979 284.564 765.564 285.182 764.983 285.832C764.41 286.482 763.452 287.374 762.111 288.508C760.991 289.448 760.272 290.088 759.954 290.427C759.636 290.758 759.373 291.094 759.166 291.432H766.622ZM768.634 285.729C768.634 283.931 768.817 282.486 769.183 281.394C769.557 280.295 770.106 279.448 770.832 278.853C771.565 278.258 772.485 277.961 773.591 277.961C774.407 277.961 775.122 278.127 775.738 278.459C776.353 278.784 776.861 279.257 777.262 279.88C777.663 280.495 777.978 281.249 778.206 282.14C778.434 283.025 778.548 284.221 778.548 285.729C778.548 287.512 778.365 288.954 777.998 290.053C777.632 291.146 777.082 291.992 776.35 292.594C775.624 293.189 774.704 293.486 773.591 293.486C772.125 293.486 770.974 292.96 770.138 291.91C769.135 290.644 768.634 288.584 768.634 285.729ZM770.552 285.729C770.552 288.225 770.843 289.887 771.424 290.717C772.011 291.54 772.734 291.951 773.591 291.951C774.448 291.951 775.167 291.536 775.748 290.707C776.336 289.877 776.63 288.218 776.63 285.729C776.63 283.226 776.336 281.563 775.748 280.74C775.167 279.918 774.441 279.506 773.57 279.506C772.713 279.506 772.028 279.869 771.517 280.595C770.874 281.522 770.552 283.233 770.552 285.729Z" fill="#222222"/>
<path d="M858.977 291.432V293.227H848.928C848.914 292.777 848.987 292.345 849.146 291.93C849.402 291.246 849.81 290.572 850.37 289.908C850.937 289.244 851.752 288.477 852.817 287.606C854.469 286.251 855.586 285.179 856.167 284.391C856.747 283.596 857.038 282.846 857.038 282.14C857.038 281.401 856.772 280.778 856.239 280.274C855.714 279.762 855.026 279.506 854.176 279.506C853.277 279.506 852.558 279.776 852.019 280.315C851.479 280.855 851.206 281.601 851.199 282.555L849.281 282.358C849.412 280.927 849.906 279.838 850.764 279.092C851.621 278.338 852.772 277.961 854.217 277.961C855.676 277.961 856.83 278.366 857.681 279.174C858.531 279.983 858.956 280.986 858.956 282.182C858.956 282.79 858.832 283.388 858.583 283.976C858.334 284.564 857.919 285.182 857.339 285.832C856.765 286.482 855.807 287.374 854.466 288.508C853.346 289.448 852.627 290.088 852.309 290.427C851.991 290.758 851.728 291.094 851.521 291.432H858.977ZM860.989 285.729C860.989 283.931 861.172 282.486 861.539 281.394C861.912 280.295 862.462 279.448 863.188 278.853C863.92 278.258 864.84 277.961 865.946 277.961C866.762 277.961 867.478 278.127 868.093 278.459C868.708 278.784 869.216 279.257 869.617 279.88C870.018 280.495 870.333 281.249 870.561 282.14C870.789 283.025 870.903 284.221 870.903 285.729C870.903 287.512 870.72 288.954 870.354 290.053C869.987 291.146 869.438 291.992 868.705 292.594C867.979 293.189 867.059 293.486 865.946 293.486C864.48 293.486 863.329 292.96 862.493 291.91C861.49 290.644 860.989 288.584 860.989 285.729ZM862.908 285.729C862.908 288.225 863.198 289.887 863.779 290.717C864.366 291.54 865.089 291.951 865.946 291.951C866.803 291.951 867.522 291.536 868.103 290.707C868.691 289.877 868.985 288.218 868.985 285.729C868.985 283.226 868.691 281.563 868.103 280.74C867.522 279.918 866.797 279.506 865.925 279.506C865.068 279.506 864.384 279.869 863.872 280.595C863.229 281.522 862.908 283.233 862.908 285.729ZM882.622 291.432V293.227H872.573C872.559 292.777 872.632 292.345 872.791 291.93C873.046 291.246 873.454 290.572 874.014 289.908C874.581 289.244 875.397 288.477 876.462 287.606C878.114 286.251 879.231 285.179 879.812 284.391C880.392 283.596 880.683 282.846 880.683 282.14C880.683 281.401 880.416 280.778 879.884 280.274C879.359 279.762 878.671 279.506 877.82 279.506C876.922 279.506 876.203 279.776 875.663 280.315C875.124 280.855 874.851 281.601 874.844 282.555L872.926 282.358C873.057 280.927 873.551 279.838 874.408 279.092C875.266 278.338 876.417 277.961 877.862 277.961C879.321 277.961 880.475 278.366 881.326 279.174C882.176 279.983 882.601 280.986 882.601 282.182C882.601 282.79 882.477 283.388 882.228 283.976C881.979 284.564 881.564 285.182 880.983 285.832C880.41 286.482 879.452 287.374 878.111 288.508C876.991 289.448 876.272 290.088 875.954 290.427C875.636 290.758 875.373 291.094 875.166 291.432H882.622ZM891.665 293.227H889.798V281.332C889.349 281.76 888.758 282.189 888.025 282.618C887.299 283.046 886.646 283.368 886.065 283.582V281.777C887.109 281.287 888.022 280.692 888.803 279.994C889.584 279.295 890.137 278.618 890.462 277.961H891.665V293.227Z" fill="#222222"/>
<path d="M974.977 291.432V293.227H964.928C964.914 292.777 964.987 292.345 965.146 291.93C965.402 291.246 965.81 290.572 966.37 289.908C966.937 289.244 967.752 288.477 968.817 287.606C970.469 286.251 971.586 285.179 972.167 284.391C972.747 283.596 973.038 282.846 973.038 282.14C973.038 281.401 972.772 280.778 972.239 280.274C971.714 279.762 971.026 279.506 970.176 279.506C969.277 279.506 968.558 279.776 968.019 280.315C967.479 280.855 967.206 281.601 967.199 282.555L965.281 282.358C965.412 280.927 965.906 279.838 966.764 279.092C967.621 278.338 968.772 277.961 970.217 277.961C971.676 277.961 972.83 278.366 973.681 279.174C974.531 279.983 974.956 280.986 974.956 282.182C974.956 282.79 974.832 283.388 974.583 283.976C974.334 284.564 973.919 285.182 973.339 285.832C972.765 286.482 971.807 287.374 970.466 288.508C969.346 289.448 968.627 290.088 968.309 290.427C967.991 290.758 967.728 291.094 967.521 291.432H974.977ZM976.989 285.729C976.989 283.931 977.172 282.486 977.539 281.394C977.912 280.295 978.462 279.448 979.188 278.853C979.92 278.258 980.84 277.961 981.946 277.961C982.762 277.961 983.478 278.127 984.093 278.459C984.708 278.784 985.216 279.257 985.617 279.88C986.018 280.495 986.333 281.249 986.561 282.14C986.789 283.025 986.903 284.221 986.903 285.729C986.903 287.512 986.72 288.954 986.354 290.053C985.987 291.146 985.438 291.992 984.705 292.594C983.979 293.189 983.059 293.486 981.946 293.486C980.48 293.486 979.329 292.96 978.493 291.91C977.49 290.644 976.989 288.584 976.989 285.729ZM978.908 285.729C978.908 288.225 979.198 289.887 979.779 290.717C980.366 291.54 981.089 291.951 981.946 291.951C982.803 291.951 983.522 291.536 984.103 290.707C984.691 289.877 984.985 288.218 984.985 285.729C984.985 283.226 984.691 281.563 984.103 280.74C983.522 279.918 982.797 279.506 981.925 279.506C981.068 279.506 980.384 279.869 979.872 280.595C979.229 281.522 978.908 283.233 978.908 285.729ZM998.622 291.432V293.227H988.573C988.559 292.777 988.632 292.345 988.791 291.93C989.046 291.246 989.454 290.572 990.014 289.908C990.581 289.244 991.397 288.477 992.462 287.606C994.114 286.251 995.231 285.179 995.812 284.391C996.392 283.596 996.683 282.846 996.683 282.14C996.683 281.401 996.416 280.778 995.884 280.274C995.359 279.762 994.671 279.506 993.82 279.506C992.922 279.506 992.203 279.776 991.663 280.315C991.124 280.855 990.851 281.601 990.844 282.555L988.926 282.358C989.057 280.927 989.551 279.838 990.408 279.092C991.266 278.338 992.417 277.961 993.862 277.961C995.321 277.961 996.475 278.366 997.326 279.174C998.176 279.983 998.601 280.986 998.601 282.182C998.601 282.79 998.477 283.388 998.228 283.976C997.979 284.564 997.564 285.182 996.983 285.832C996.41 286.482 995.452 287.374 994.111 288.508C992.991 289.448 992.272 290.088 991.954 290.427C991.636 290.758 991.373 291.094 991.166 291.432H998.622ZM1010.44 291.432V293.227H1000.4C1000.38 292.777 1000.45 292.345 1000.61 291.93C1000.87 291.246 1001.28 290.572 1001.84 289.908C1002.4 289.244 1003.22 288.477 1004.28 287.606C1005.94 286.251 1007.05 285.179 1007.63 284.391C1008.21 283.596 1008.51 282.846 1008.51 282.14C1008.51 281.401 1008.24 280.778 1007.71 280.274C1007.18 279.762 1006.49 279.506 1005.64 279.506C1004.74 279.506 1004.03 279.776 1003.49 280.315C1002.95 280.855 1002.67 281.601 1002.67 282.555L1000.75 282.358C1000.88 280.927 1001.37 279.838 1002.23 279.092C1003.09 278.338 1004.24 277.961 1005.68 277.961C1007.14 277.961 1008.3 278.366 1009.15 279.174C1010 279.983 1010.42 280.986 1010.42 282.182C1010.42 282.79 1010.3 283.388 1010.05 283.976C1009.8 284.564 1009.39 285.182 1008.81 285.832C1008.23 286.482 1007.27 287.374 1005.93 288.508C1004.81 289.448 1004.09 290.088 1003.78 290.427C1003.46 290.758 1003.2 291.094 1002.99 291.432H1010.44Z" fill="#222222"/>
<path d="M13.0591 252.264C13.0591 250.466 13.2423 249.021 13.6087 247.929C13.9821 246.83 14.5317 245.983 15.2576 245.388C15.9905 244.793 16.91 244.496 18.0162 244.496C18.832 244.496 19.5476 244.662 20.1629 244.994C20.7782 245.319 21.2864 245.792 21.6874 246.415C22.0884 247.03 22.4029 247.784 22.6311 248.675C22.8592 249.56 22.9733 250.757 22.9733 252.264C22.9733 254.047 22.7901 255.489 22.4237 256.588C22.0573 257.681 21.5076 258.528 20.7748 259.129C20.0488 259.724 19.1293 260.021 18.0162 260.021C16.5505 260.021 15.3994 259.495 14.5628 258.445C13.5603 257.179 13.0591 255.119 13.0591 252.264ZM14.9776 252.264C14.9776 254.76 15.268 256.422 15.8488 257.252C16.4364 258.075 17.1589 258.486 18.0162 258.486C18.8735 258.486 19.5925 258.071 20.1733 257.242C20.7609 256.412 21.0548 254.753 21.0548 252.264C21.0548 249.761 20.7609 248.098 20.1733 247.275C19.5925 246.453 18.8666 246.041 17.9955 246.041C17.1382 246.041 16.4537 246.404 15.9421 247.13C15.2991 248.057 14.9776 249.768 14.9776 252.264Z" fill="#444444"/>
<path d="M13.0591 175.398L15.0191 175.233C15.1643 176.187 15.4996 176.906 16.0251 177.39C16.5574 177.867 17.1969 178.105 17.9436 178.105C18.8424 178.105 19.6029 177.766 20.2251 177.089C20.8474 176.411 21.1585 175.513 21.1585 174.393C21.1585 173.328 20.8577 172.488 20.2562 171.872C19.6617 171.257 18.8804 170.949 17.9125 170.949C17.311 170.949 16.7683 171.088 16.2843 171.364C15.8004 171.634 15.4201 171.987 15.1436 172.422L13.3909 172.194L14.8636 164.385H22.4237V166.169H16.3569L15.5376 170.255C16.4503 169.619 17.4078 169.301 18.4103 169.301C19.7377 169.301 20.8577 169.76 21.7703 170.68C22.6829 171.599 23.1392 172.782 23.1392 174.227C23.1392 175.602 22.7383 176.792 21.9363 177.794C20.9614 179.025 19.6305 179.64 17.9436 179.64C16.5609 179.64 15.4305 179.253 14.5524 178.479C13.6813 177.704 13.1835 176.677 13.0591 175.398Z" fill="#444444"/>
<path d="M8.2679 99H6.4012V87.105C5.95181 87.5336 5.36069 87.9623 4.62784 88.3909C3.9019 88.8196 3.24856 89.1411 2.66781 89.3554V87.5509C3.71178 87.0601 4.62438 86.4655 5.40563 85.7672C6.18688 85.0689 6.73997 84.3914 7.06492 83.7346H8.2679V99ZM13.0591 91.5021C13.0591 89.7045 13.2423 88.2596 13.6087 87.1672C13.9821 86.0679 14.5317 85.221 15.2576 84.6264C15.9905 84.0319 16.91 83.7346 18.0162 83.7346C18.832 83.7346 19.5476 83.9005 20.1629 84.2324C20.7782 84.5573 21.2864 85.0309 21.6874 85.6531C22.0884 86.2684 22.4029 87.022 22.6311 87.9139C22.8592 88.7989 22.9733 89.9949 22.9733 91.5021C22.9733 93.2858 22.7901 94.7273 22.4237 95.8266C22.0573 96.919 21.5076 97.7659 20.7748 98.3674C20.0488 98.962 19.1293 99.2593 18.0162 99.2593C16.5505 99.2593 15.3994 98.7338 14.5628 97.6829C13.5603 96.4177 13.0591 94.3575 13.0591 91.5021ZM14.9776 91.5021C14.9776 93.9979 15.268 95.6607 15.8488 96.4903C16.4364 97.3131 17.1589 97.7244 18.0162 97.7244C18.8735 97.7244 19.5925 97.3096 20.1733 96.48C20.7609 95.6503 21.0548 93.991 21.0548 91.5021C21.0548 88.9993 20.7609 87.3366 20.1733 86.5139C19.5925 85.6911 18.8666 85.2798 17.9955 85.2798C17.1382 85.2798 16.4537 85.6428 15.9421 86.3687C15.2991 87.2951 14.9776 89.0063 14.9776 91.5021Z" fill="#444444"/>
<path d="M8.2679 19H6.4012V7.105C5.95181 7.53365 5.36069 7.96229 4.62784 8.39094C3.9019 8.81959 3.24856 9.14108 2.66781 9.3554V7.55093C3.71178 7.06006 4.62438 6.46548 5.40563 5.7672C6.18688 5.06891 6.73997 4.39137 7.06492 3.73457H8.2679V19ZM13.0591 15.0177L15.0191 14.8518C15.1643 15.8059 15.4996 16.5249 16.0251 17.0089C16.5574 17.4859 17.1969 17.7244 17.9436 17.7244C18.8424 17.7244 19.6029 17.3857 20.2251 16.7081C20.8474 16.0306 21.1585 15.1318 21.1585 14.0118C21.1585 12.9471 20.8577 12.1071 20.2562 11.4917C19.6617 10.8764 18.8804 10.5688 17.9125 10.5688C17.311 10.5688 16.7683 10.707 16.2843 10.9836C15.8004 11.2532 15.4201 11.6058 15.1436 12.0414L13.3909 11.8132L14.8636 4.00421H22.4237V5.78794H16.3569L15.5376 9.87393C16.4503 9.23787 17.4078 8.91984 18.4103 8.91984C19.7377 8.91984 20.8577 9.3796 21.7703 10.2991C22.6829 11.2186 23.1392 12.4009 23.1392 13.8458C23.1392 15.2217 22.7383 16.4108 21.9363 17.4133C20.9614 18.6439 19.6305 19.2593 17.9436 19.2593C16.5609 19.2593 15.4305 18.8721 14.5524 18.0978C13.6813 17.3234 13.1835 16.2967 13.0591 15.0177Z" fill="#444444"/>
<path d="M37 253L1014 253" stroke="#E7E7E7"/>
<path d="M36 172L1013 172" stroke="#E7E7E7"/>
<path d="M36 91L1013 91.0001" stroke="#E7E7E7"/>
<path d="M36 10L1013 10.0001" stroke="#E7E7E7"/>
<path d="M60 253V10" stroke="#E7E7E7"/>
<path d="M176 253V10" stroke="#E7E7E7"/>
<path d="M292 253V10" stroke="#E7E7E7"/>
<path d="M408 253V10" stroke="#E7E7E7"/>
<path d="M524 253V10" stroke="#E7E7E7"/>
<path d="M640 253V10" stroke="#E7E7E7"/>
<path d="M752 253V10" stroke="#E7E7E7"/>
<path d="M872 253V10" stroke="#E7E7E7"/>
<path d="M988 253V10" stroke="#E7E7E7"/>
<circle cx="60" cy="253" r="7" fill="#4173F5"/>
<circle cx="176" cy="224" r="7" fill="#4173F5"/>
<circle cx="292" cy="206" r="7" fill="#4173F5"/>
<circle cx="408" cy="191" r="7" fill="#4173F5"/>
<circle cx="525" cy="158" r="7" fill="#4173F5"/>
<circle cx="640" cy="165" r="7" fill="#4173F5"/>
<circle cx="752" cy="144" r="7" fill="#4173F5"/>
<circle cx="872" cy="124" r="7" fill="#4173F5"/>
<circle cx="988" cy="158" r="7" fill="#4173F5"/>
<path d="M58.5 253L174.5 223.5L291.5 206L409.5 191L523.5 158L641 166L751 144.5L870 123.5L988.5 157.5" stroke="#4173F5"/>
</svg>
