<svg width="20" height="20" viewBox="0 0 20 20" fill="none" xmlns="http://www.w3.org/2000/svg">
<path d="M9.99992 9.99996C9.08325 9.99996 8.33325 9.24996 8.33325 8.33329C8.33325 7.41663 9.08325 6.66663 9.99992 6.66663C10.9166 6.66663 11.6666 7.41663 11.6666 8.33329C11.6666 9.24996 10.9166 9.99996 9.99992 9.99996ZM14.9999 8.49996C14.9999 5.47496 12.7916 3.33329 9.99992 3.33329C7.20825 3.33329 4.99992 5.47496 4.99992 8.49996C4.99992 10.45 6.62492 13.0333 9.99992 16.1166C13.3749 13.0333 14.9999 10.45 14.9999 8.49996ZM9.99992 1.66663C13.4999 1.66663 16.6666 4.34996 16.6666 8.49996C16.6666 11.2666 14.4416 14.5416 9.99992 18.3333C5.55825 14.5416 3.33325 11.2666 3.33325 8.49996C3.33325 4.34996 6.49992 1.66663 9.99992 1.66663Z" fill="#A9A9BC"/>
</svg>
