<svg width="22" height="21" viewBox="0 0 22 21" fill="none" xmlns="http://www.w3.org/2000/svg">
<path d="M5.88273 0.485898L4.2126 3.54101C4.15258 3.65081 4.06392 3.74229 3.95605 3.80571L0.458222 5.86243C0.187977 6.02134 0.058242 6.34201 0.141974 6.64412L1.16784 10.3456C1.20181 10.4681 1.20136 10.5977 1.16655 10.72L0.15815 14.263C0.0665667 14.5848 0.218193 14.926 0.518386 15.0737L3.89692 16.736C4.04167 16.8072 4.157 16.9267 4.223 17.0739L5.72749 20.429C5.87288 20.7533 6.24014 20.9148 6.57738 20.8028L10.1473 19.6173C10.2804 19.5731 10.4238 19.5704 10.5585 19.6095L14.3973 20.724C14.7179 20.8171 15.0592 20.6681 15.209 20.3698L16.875 17.0513C16.9419 16.9181 17.05 16.81 17.1831 16.7432L20.5041 15.0759C20.8013 14.9267 20.9505 14.5872 20.8592 14.2673L19.7714 10.4528C19.7341 10.3223 19.7361 10.1838 19.777 10.0544L20.8455 6.67296C20.9449 6.35833 20.8085 6.01725 20.5195 5.85801L17.1618 4.00784C17.042 3.94182 16.9444 3.8418 16.8814 3.72039L15.2053 0.490832C15.0563 0.203778 14.7284 0.0581147 14.4156 0.139979L10.5351 1.15529C10.415 1.18672 10.2887 1.18527 10.1693 1.1511L6.68073 0.152406C6.36947 0.063301 6.03803 0.201815 5.88273 0.485898Z" fill="#4173F5"/>
<path d="M7 10.2693L9.89015 13L14 7" stroke="white" stroke-width="1.05"/>
</svg>
